Patient4_TMGait_0pt7_01_left_43_EMG.mot
version=1
nRows=39
nColumns=33
inDegrees=no
endheader
time	1LAddLong	2LGlutMax	3LGlutMed	4LIliopsoas	5LSemiMemb	6LBicFemLong	7LRecFem	8LVastMed	9LVastLat	10LGasMed	11LTibAnt	12lTibPost	13LPeroneusLong	14LSol	15LExtDigLong	16LFlexDigLong	17RAddLong	18RGlutMax	19RGlutMed	20RIliopsoas	21RSemiMemb	22RBicFemLong	23RRecFem	24RVastMed	25RVastLat	26RGasMed	27RTibAnt	28RTibPost	29RPeroneusLong	30RSol	31RExtDigLong	32RFlexDigLong
51.053	0.008087	-0.066071	0.028534	0.009308	0.019836	-0.067749	-0.076752	0.003967	0.052795	-0.014648	0.005951	-0.012054	0.077209	0.025177	-0.014801	0.000305	-0.024719	-0.1799	-0.1149	0.091095	0.010681	0.15289	0.30075	0.11948	0.058899	-0.12024	0.049591	-0.014038	0.41168	0.068512	-0.002289	-0.013275
51.054	0.014801	-0.06424	0.033417	0.00473	0.013733	-0.078583	-0.041962	-0.001984	0.050964	-0.013428	0.018616	0.000458	0.066223	-0.009308	-0.053406	0.003662	-0.034485	-0.20676	0.15228	0.061951	-0.050659	0.1799	0.2269	0.19531	0.14847	-0.14786	0.15686	0.016632	0.083008	-0.084229	-0.002899	-0.018005
51.055	0.003357	-0.070648	0.020447	0.014954	0.019989	-0.070496	-0.050812	0.001984	0.040588	-0.011749	0.024109	-0.007019	0.071716	-0.05661	-0.038757	-0.00061	-0.053864	-0.19012	0.51804	0.05722	-0.08728	0.15289	0.02243	0.10269	0.15427	-0.007019	0.13626	0.054474	0.10025	-0.2623	-0.000458	-0.012054
51.056	0.006561	-0.046844	-0.006256	0.00946	0.002441	-0.09552	-0.053558	0.005188	0.038452	-0.035553	0.004272	0.001984	0.063934	-0.078278	-0.012817	-0.00061	-0.050201	-0.2446	0.23468	0.04715	-0.01236	0.15411	-0.30136	-0.030975	-0.018616	0.18204	0.06134	-0.025024	0.2179	-0.4097	0.001221	-0.013275
51.057	0.015411	-0.031281	-0.03418	0.011444	0.007172	-0.10696	-0.062866	0.000305	0.036316	-0.022278	0.008698	-0.000916	0.055847	-0.04303	-0.006561	-0.010681	-0.034943	-0.19638	0.037231	0.006256	-0.051117	0.025024	-0.32867	-0.044098	-0.11368	0.14847	0.066528	-0.092468	-0.052643	-0.38483	-0.002899	-0.016174
51.058	0.007782	-0.028076	-0.085602	0.014038	0.006866	-0.056915	-0.063019	-0.003357	0.037231	-0.033569	0.00885	-0.000763	0.080872	-0.018463	0.019836	-0.012665	-0.007629	-0.23758	0.00946	-0.024719	-0.097046	-0.10803	-0.12116	-0.14084	-0.083923	-0.012817	0.1413	-0.061493	-0.27039	-0.2005	-0.001221	-0.025482
51.059	0.017395	-0.053558	-0.081635	0.007477	0.002136	-0.086823	-0.051727	0.006104	0.037384	-0.041351	0.014801	-0.001373	0.066681	0.005035	0.028992	-0.009155	-0.005035	-0.23315	-0.18478	0.006104	-0.027771	-0.17303	0.093536	-0.1445	-0.06073	0.051422	0.14282	0.005493	-0.24551	-0.22812	-0.002747	-0.005798
51.06	-0.034637	-0.060425	-0.012207	0.01236	0.018616	-0.059052	-0.062866	-0.003052	0.032349	-0.038452	0.001221	-0.005341	0.05661	0.025635	0.017242	-0.000916	-0.021362	-0.19989	-0.19333	0.060272	-0.081177	-0.11307	-0.056305	-0.02243	0.047607	0.037079	0.058289	0.021667	-0.15701	-0.56625	-0.005951	-0.007019
51.061	0.023346	-0.066376	0.077515	0.003815	0.010071	-0.073547	-0.064697	0.001984	0.035095	-0.032806	0.014038	0.000153	0.054169	0.070343	0.023651	-0.013123	-0.011902	-0.16983	-0.24628	0.042114	0.12848	-0.011597	-0.20386	0.057678	0.10773	0.016937	-0.008545	-0.10315	-0.159	-0.64697	-0.002441	-0.012665
51.062	0.091705	-0.10605	0.034943	0.003357	-0.000305	-0.06546	-0.071716	-0.000458	0.046387	-0.022583	0.006714	0	0.058899	0.048676	0.018005	-0.002594	-0.013275	-0.16907	0.11749	-0.052643	0.14618	0.14297	-0.40344	-0.001068	0.10162	0.024414	-0.047607	-0.32867	-0.11261	-0.35553	-0.001373	-0.00061
51.063	0.032654	-0.15457	0.036011	0.000305	0.000916	-0.084686	-0.065155	-0.000305	0.044098	-0.021973	0.009003	-0.000153	0.049591	0.024261	-0.003052	-0.010376	0.00061	-0.28686	0.46921	-0.11353	0.028076	0.18112	-0.38132	0.005493	0.069733	0.020294	-0.022278	0.28824	-0.016785	0.36255	0.007477	0.002594
51.064	0.005035	-0.11795	0.034027	0.006866	-0.000458	-0.05722	-0.06073	-0.002441	0.041199	-0.010376	0.002289	-0.000763	0.0354	0.05661	-0.011902	-0.002289	0.015564	-0.22629	0.10498	-0.095673	-0.11765	0.095367	-0.23209	-0.049438	0.004425	0.001984	0.023193	0.18265	0.03479	0.49286	-0.009308	0.001221
51.065	0.003967	-0.096741	-0.004272	-0.010986	-0.015106	-0.057526	-0.05249	0.003662	0.049744	-0.024719	0.002289	-0.004883	0.036774	0.005493	-0.012054	0.004578	0.034332	-0.23697	-0.44022	-0.024261	-0.10193	0.014191	-0.24246	-0.022125	0.036163	-0.003357	0.00412	0.032959	-0.034485	0.28824	-0.005798	0.003967
51.066	-0.005798	-0.11704	-0.051422	0.005493	-0.017853	-0.067902	-0.074615	0.004883	0.040436	-0.027771	-0.007477	-0.008545	0.06134	-0.090942	-0.013733	-0.01236	0.046997	-0.233	0.49591	-0.18402	-0.12177	-0.095978	-0.12619	0.056915	0.11902	0.000458	-0.044556	0.001984	-0.043793	0.10574	-0.00824	-0.002289
51.067	0.002441	-0.099335	-0.041199	0.003357	-0.005035	-0.084686	-0.057831	0.003204	0.050201	-0.033264	-0.001373	-0.009155	0.07782	-0.17563	-0.020599	-0.004883	0.008087	-0.23453	0.96695	-0.3418	-0.075989	-0.10223	0.052643	0.10651	0.10864	-0.001221	-0.077057	-0.008698	-0.016785	-0.013275	-0.006714	-0.005646
51.068	0.003052	-0.10513	-0.01709	0.012207	-0.000305	-0.080414	-0.056	0.003967	0.046539	-0.041809	0.009155	0	0.059967	-0.15778	0.001984	-0.023804	-0.018921	-0.29175	0.34317	-0.3421	0.042725	-0.066986	0.053558	0.12421	0.051727	-0.002899	-0.061188	-0.012512	0.029449	0.01297	-0.011597	-0.01236
51.069	0.020294	-0.11124	-0.035248	0.004578	0.011597	-0.06485	-0.077667	-0.001831	0.04303	-0.052032	0.043488	0.009308	0.028076	-0.10162	0.023651	-0.00946	0.010071	-0.30518	0.081177	-0.13733	0.10651	0.033875	-0.011902	0.052948	0.016022	-0.006104	-0.073242	-0.023499	0.046539	0.035553	-0.010986	-0.001068
51.07	0.020752	-0.10269	-0.056	-0.009766	0.0383	-0.043488	-0.065002	0	0.033875	-0.061493	0.028992	0.015564	0.018158	-0.087585	0.018463	-0.018311	0.040588	-0.2829	0	0.11673	0.1178	0.10819	-0.26154	-0.063782	0.034943	-0.006409	-0.11124	-0.015259	0.004272	0.053864	-0.006409	-0.011292
51.071	0.010681	-0.10162	-0.091248	-0.021667	0.02533	-0.032196	-0.044403	0.003052	0.023651	-0.066223	0.00824	0.007629	0.009155	-0.12878	0.005646	-0.009766	0.055695	-0.25269	0.12436	0.33798	0.091095	0.11856	-0.13718	-0.06073	0.048218	0.000763	-0.084534	-0.013123	-0.021667	0.007629	-0.007019	-0.007477
51.072	0.010986	-0.12283	-0.11551	-0.004425	-0.000916	0.003967	-0.051727	0.009308	0.02594	-0.07019	0.007629	0.017853	0.015106	-0.12207	0.026703	-0.001831	0.028076	-0.24902	-0.042267	0.38742	0.061951	0.082855	-0.103	-0.076599	0.050354	-0.011749	0.056305	-0.013885	-0.11887	-0.16281	-0.014496	-0.007782
51.073	0.003662	-0.076599	-0.13321	0.001526	-0.027008	0.027008	-0.040741	0.009308	0.020752	-0.063934	0.016174	0.010223	0.02655	0.001526	0.050507	-0.00946	-0.012512	-0.26749	-0.03891	0.25162	-0.070038	0.038147	-0.045166	-0.040131	0.039825	-0.01709	0.10422	-0.011902	-0.12573	-0.27481	-0.011292	-0.019989
51.074	0.003357	-0.096283	-0.21347	0.015106	-0.0383	0.00061	-0.025177	0.004272	0.016022	-0.044708	0.006714	0.007477	0.0177	0.055847	0.082245	-0.006714	-0.012817	-0.22522	-0.05249	0.13534	-0.31006	0.089874	-0.046082	0.037537	0.027466	-0.015259	0.075378	-0.016785	-0.002899	-0.32288	-0.018463	-0.012817
51.075	0.013123	-0.097656	-0.24414	0.01297	-0.036011	-0.010223	-0.030823	0.008392	0.019684	-0.020752	0.010986	0.004883	0.022125	-0.025024	0.01236	0.000763	-0.028229	-0.21591	-0.073395	0.12375	-0.1207	0.074005	-0.058289	0.10895	0.029907	-0.015106	0.22598	-0.023651	-0.021057	-0.029907	-0.0177	-0.018921
51.076	0.006714	-0.088501	-0.13336	0.012054	-0.005951	-0.027161	-0.024567	0.001526	0.026703	-0.025024	0.042877	0.01297	-0.014343	-0.035706	-0.04364	0.000458	0.002899	-0.18204	-0.036011	0.14572	0.17639	-0.031281	-0.047302	0.069122	0.04364	-0.014801	0.19058	-0.021667	0.028076	0.37415	-0.016785	-0.017853
51.077	0.019989	-0.11169	0.060883	0.006104	0.031128	0.008698	-0.048828	0.002594	0.030975	-0.030823	0.027161	0.00473	-0.013733	0.045929	-0.056763	-0.007324	0.016785	-0.22018	-0.15747	0.056305	0.22446	-0.083618	-0.063019	0.045929	0.026855	-0.010071	0.072021	-0.017242	0.093842	0.55435	-0.011749	-0.001221
51.078	0.004272	-0.13367	0.14725	0.000153	0.035553	0.032654	-0.030518	0.008545	0.032043	-0.037994	0.018005	0.005341	-0.005951	0.032196	-0.031738	0.003967	0.024719	-0.18387	-0.059814	-0.027161	0.103	-0.021057	-0.015564	0.032501	0.006714	-0.011597	0.001984	-0.014801	0.11688	0.48492	-0.013428	-0.014343
51.079	0.000916	-0.15945	0.18494	-0.005646	0.005188	0.022583	-0.03006	0.012817	0.030212	-0.046082	0.01358	0.002899	0.010681	0.005188	-0.014343	0.009155	0.035553	-0.19684	-0.092316	-0.046234	-0.15121	0.21393	0.019836	-0.032349	-0.006561	-0.019989	0.10437	-0.015717	0.23895	0.38452	-0.013428	-0.007477
51.08	0.005646	-0.15503	0.16663	0.003204	-0.004578	0.016937	-0.039368	0.004272	0.02594	-0.056458	0.011292	0.006104	-0.006866	-0.00824	-0.011292	0.004883	0.031433	-0.22553	-0.12436	-0.030823	-0.23178	0.21637	0.007172	-0.027161	-0.002747	-0.014648	0.17395	-0.018768	0.25238	0.23132	-0.015869	-0.005035
51.081	0.000153	-0.15823	0.1207	0.005951	-0.03952	-0.015106	-0.024872	0.006409	0.026093	-0.048828	0.01236	0.000305	-0.013885	0.001221	-0.016022	0.007477	-0.000305	-0.17593	-0.50461	0.055542	-0.32989	0.13992	0.09964	-0.078888	-0.019836	0.00946	0.33569	0.007935	0.098572	-0.059662	-0.015259	-0.001984
51.082	-0.004578	-0.16617	0.066528	-0.007324	-0.059662	0.011444	-0.024414	0.010376	0.016327	-0.049744	0.007629	0.010529	-0.019989	-0.023651	-0.00885	0.002747	-0.023346	-0.20218	-0.68329	0.063019	-0.392	0.24231	0.168	-0.11398	-0.078888	-0.002289	0.55756	0.048981	-0.21332	-0.13916	-0.012207	-0.00473
51.083	-0.007629	-0.15167	0.009766	-0.006409	-0.10498	-0.016632	-0.021362	0.002594	0.017242	-0.0354	0.009003	0.008392	-0.008392	-0.018463	-0.00412	-0.010223	-0.020142	-0.19608	-0.47424	-0.037231	-0.33722	0.24048	0.23789	-0.078125	-0.064545	-0.010681	0.24399	-0.00946	-0.20676	-0.35828	-0.018311	-0.002441
51.084	0.002289	-0.13214	-0.010834	0.007324	-0.077209	-0.013123	-0.019989	0.002289	0.027161	-0.036469	0.005341	0.002289	-0.022888	-0.034485	-0.008698	-0.010681	-0.02594	-0.18585	0.15625	-0.082245	-0.11963	0.12482	0.17899	0.14694	0.013428	-0.058746	-0.36255	-0.029449	-0.26993	-0.31967	-0.020447	-0.00946
51.085	0.005493	-0.15915	0.004425	0.025024	0.005341	-0.043488	-0.029297	0.008698	0.023041	-0.041962	0.00412	0.006866	-0.01358	-0.12543	-0.007935	-0.011902	-0.02243	-0.21896	0.30716	-0.076599	0.22446	-0.007629	-0.14252	0.15106	0.076447	-0.090179	-0.44479	-0.019989	-0.26062	-0.14786	-0.02121	-0.012054
51.086	0.003662	-0.1416	0.022583	0.019226	0.043182	-0.079651	-0.033722	0.001984	0.027466	-0.021973	0.003204	0.010681	-0.01236	-0.20874	0.001984	-0.009918	0.007935	-0.26703	-0.16434	-0.058899	0.44418	-0.071869	-0.25009	0.041809	0.069122	-0.072937	-0.42374	-0.011139	0.13962	-0.073853	-0.015564	-0.011292
51.087	0.006866	-0.17349	-0.027618	0.012054	-0.027618	-0.097198	-0.02121	0.005951	0.017242	-0.065308	0.011597	0.008545	-0.020294	-0.18768	-0.001526	-0.00885	0.032501	-0.25085	0.1651	0.03006	0.26794	-0.078735	-0.18478	0.076752	0.069427	-0.074768	-0.37598	-0.001831	0.20767	0.05722	-0.017548	-0.011292
51.088	0.010071	-0.14358	-0.028229	-0.002441	0.068207	-0.077972	-0.009918	0.007477	0.013123	-0.047607	0.014191	0.007477	-0.008392	-0.13001	-0.008545	-0.007629	0.047913	-0.23422	0.40054	0.036163	-0.075836	0.11215	0.003967	0.00885	0.012512	-0.008545	-0.53146	-0.00412	0.20248	0.096741	-0.012665	-0.012817
51.089	-0.007477	-0.17075	-0.046082	-0.004272	0.061951	-0.061646	-0.014954	0.002441	0.00946	-0.041656	0.005493	0.007172	-0.011139	-0.13519	-0.007629	-0.014191	0.039673	-0.24857	0.25177	0.010376	-0.13489	0.24597	0.019989	-0.058289	-0.048828	0.056915	-0.29114	-0.001068	0.10834	0.071564	-0.016327	-0.009155
51.09	-0.000153	-0.18341	-0.041046	0.005035	-0.003357	-0.055084	-0.005798	0.007629	0.00885	-0.032959	0.009766	0.002899	-0.028534	-0.05127	0.001526	-0.010376	-0.012207	-0.29694	0.093994	0.037079	0.072021	0.40955	0.048218	-0.089722	-0.001068	0.018616	-0.21973	-0.002899	-0.20355	0.099945	-0.019226	-0.003052
51.091	0.012665	-0.16953	-0.051575	-0.00473	-0.044556	-0.076294	-0.021515	0.00473	0.019531	-0.031433	0.005951	0.003967	-0.016479	-0.056305	0.008545	-0.009918	-0.027466	-0.2594	0.62943	-0.007477	-0.20096	0.45456	0.037537	0.019073	0.078278	0.026855	0.013733	0.005493	-0.2243	0.12253	-0.018005	-0.001526
